<svg width="83" height="83" viewBox="0 0 83 83" fill="none" xmlns="http://www.w3.org/2000/svg">
<path d="M74.1071 0H8.89286C3.98326 0 0 3.98326 0 8.89286V74.1071C0 79.0167 3.98326 83 8.89286 83H74.1071C79.0167 83 83 79.0167 83 74.1071V8.89286C83 3.98326 79.0167 0 74.1071 0ZM51.3748 71.0873C49.8185 71.3652 49.2442 70.4018 49.2442 69.6051C49.2442 68.6047 49.2812 63.4913 49.2812 59.3598C49.2812 56.4696 48.3179 54.6355 47.1877 53.6721C54.0426 52.9125 61.2681 51.9676 61.2681 40.129C61.2681 36.7571 60.0638 35.0712 58.1 32.9036C58.415 32.1069 59.471 28.8277 57.785 24.5665C55.2098 23.7699 49.3183 27.8828 49.3183 27.8828C46.8728 27.1973 44.2234 26.8453 41.6112 26.8453C38.9989 26.8453 36.3496 27.1973 33.904 27.8828C33.904 27.8828 28.0125 23.7699 25.4373 24.5665C23.7513 28.8092 24.7888 32.0884 25.1223 32.9036C23.1585 35.0712 22.2321 36.7571 22.2321 40.129C22.2321 51.9121 29.1426 52.9125 35.9975 53.6721C35.1083 54.4688 34.3116 55.8397 34.0337 57.8036C32.2737 58.6002 27.7717 59.9712 25.0853 55.2283C23.3993 52.3011 20.3609 52.0603 20.3609 52.0603C17.3596 52.0232 20.1571 53.95 20.1571 53.95C22.158 54.8763 23.5661 58.4335 23.5661 58.4335C25.3632 63.9359 33.9596 62.0833 33.9596 62.0833C33.9596 64.6585 33.9967 68.8455 33.9967 69.6051C33.9967 70.4018 33.4408 71.3652 31.8661 71.0873C19.6384 66.9929 11.079 55.358 11.079 41.7594C11.079 24.7518 24.0848 11.8386 41.0924 11.8386C58.1 11.8386 71.8839 24.7518 71.8839 41.7594C71.9025 55.358 63.6025 67.0114 51.3748 71.0873ZM33.2 59.7674C32.848 59.8415 32.5145 59.6933 32.4775 59.4525C32.4404 59.1745 32.6812 58.9337 33.0333 58.8596C33.3853 58.8225 33.7188 58.9708 33.7558 59.2116C33.8114 59.4525 33.5705 59.6933 33.2 59.7674ZM31.44 59.6007C31.44 59.8415 31.1621 60.0453 30.7915 60.0453C30.3839 60.0824 30.106 59.8786 30.106 59.6007C30.106 59.3598 30.3839 59.156 30.7545 59.156C31.1065 59.119 31.44 59.3228 31.44 59.6007ZM28.9018 59.3969C28.8277 59.6377 28.4571 59.7489 28.1422 59.6377C27.7902 59.5636 27.5493 59.2857 27.6234 59.0449C27.6975 58.804 28.0681 58.6929 28.383 58.767C28.7536 58.8781 28.9944 59.156 28.9018 59.3969ZM26.623 58.3964C26.4562 58.6002 26.1042 58.5632 25.8263 58.2853C25.5484 58.0444 25.4743 57.6924 25.6596 57.5257C25.8263 57.3219 26.1783 57.3589 26.4562 57.6368C26.6971 57.8777 26.7897 58.2482 26.623 58.3964ZM24.9371 56.7105C24.7703 56.8217 24.4554 56.7105 24.2516 56.4326C24.0478 56.1547 24.0478 55.8397 24.2516 55.71C24.4554 55.5433 24.7703 55.673 24.9371 55.9509C25.1408 56.2288 25.1408 56.5623 24.9371 56.7105ZM23.7328 54.9134C23.5661 55.0801 23.2882 54.9875 23.0844 54.8022C22.8806 54.5614 22.8435 54.2835 23.0103 54.1538C23.177 53.987 23.4549 54.0797 23.6587 54.265C23.8625 54.5058 23.8996 54.7837 23.7328 54.9134ZM22.4915 53.5424C22.4174 53.7091 22.1766 53.7462 21.9728 53.6165C21.7319 53.5054 21.6208 53.3016 21.6949 53.1348C21.769 53.0237 21.9728 52.9681 22.2136 53.0607C22.4545 53.1904 22.5656 53.3942 22.4915 53.5424Z" fill="white"/>
</svg>
