<svg width="82" height="82" viewBox="0 0 82 82" fill="none" xmlns="http://www.w3.org/2000/svg">
<path d="M76.1429 0H5.83884C2.61741 0 0 2.65402 0 5.91205V76.088C0 79.346 2.61741 82 5.83884 82H76.1429C79.3643 82 82 79.346 82 76.088V5.91205C82 2.65402 79.3643 0 76.1429 0ZM24.783 70.2857H12.6295V31.1527H24.8013V70.2857H24.783ZM18.7062 25.808C14.8076 25.808 11.6594 22.6415 11.6594 18.7612C11.6594 14.8808 14.8076 11.7143 18.7062 11.7143C22.5866 11.7143 25.7531 14.8808 25.7531 18.7612C25.7531 22.6598 22.6049 25.808 18.7062 25.808ZM70.3406 70.2857H58.1871V51.25C58.1871 46.7107 58.0955 40.8719 51.8723 40.8719C45.5393 40.8719 44.5692 45.8138 44.5692 50.9205V70.2857H32.4156V31.1527H44.075V36.4973H44.2397C45.8688 33.4223 49.8406 30.1826 55.7527 30.1826C68.0527 30.1826 70.3406 38.2911 70.3406 48.8339V70.2857Z" fill="white"/>
</svg>
