<svg width="84" height="83" viewBox="0 0 84 83" fill="none" xmlns="http://www.w3.org/2000/svg">
<path d="M75 0H9C4.03125 0 0 3.98326 0 8.89286V74.1071C0 79.0167 4.03125 83 9 83H75C79.9688 83 84 79.0167 84 74.1071V8.89286C84 3.98326 79.9688 0 75 0ZM65.8313 29.4205C65.8688 29.9393 65.8687 30.4766 65.8687 30.9953C65.8687 47.058 53.4937 65.5663 30.8812 65.5663C23.9062 65.5663 17.4375 63.5654 12 60.1194C12.9937 60.2306 13.95 60.2676 14.9625 60.2676C20.7188 60.2676 26.0062 58.3408 30.225 55.0801C24.825 54.969 20.2875 51.4674 18.7313 46.6504C20.625 46.9283 22.3312 46.9283 24.2812 46.4281C18.6562 45.298 14.4375 40.4069 14.4375 34.4969V34.3487C16.0688 35.2565 17.9812 35.8123 19.9875 35.8864C18.3008 34.7778 16.9181 33.2739 15.9628 31.5088C15.0074 29.7437 14.5092 27.7724 14.5125 25.7708C14.5125 23.5105 15.1125 21.4355 16.1813 19.6384C22.2375 27.0121 31.3312 31.829 41.5312 32.3478C39.7875 24.1033 46.0312 17.4152 53.5312 17.4152C57.075 17.4152 60.2625 18.8788 62.5125 21.2502C65.2875 20.7315 67.95 19.7125 70.3125 18.323C69.3938 21.1391 67.4625 23.5105 64.9125 25.0112C67.3875 24.7518 69.7875 24.0663 72 23.1214C70.3313 25.5484 68.2313 27.6975 65.8313 29.4205Z" fill="white"/>
</svg>
