<svg width="83" height="83" viewBox="0 0 83 83" fill="none" xmlns="http://www.w3.org/2000/svg">
<path d="M35.9552 65.0058C35.1528 66.1402 34.3931 66.6993 33.6669 66.6993C33.1827 66.6993 32.9072 66.4157 32.8196 65.8531C32.785 65.7367 32.785 65.2952 32.785 64.4467V49.7373H29.1676V65.535C29.1676 66.9471 29.2875 67.8993 29.4869 68.5045C29.8477 69.5167 30.6524 69.9904 31.819 69.9904C33.1493 69.9904 34.5165 69.187 35.954 67.5362V69.7161H39.5772V49.7385H35.9552V65.0058Z" fill="white"/>
<path d="M16.0202 46.6787H20.2786V69.717H24.3041V46.6787H28.6408V42.9045H16.0202V46.6787Z" fill="white"/>
<path d="M40.6712 29.2116C41.8505 29.2116 42.4154 28.2779 42.4154 26.4092V17.9155C42.4154 16.0492 41.8505 15.1189 40.6712 15.1189C39.4908 15.1189 38.9247 16.0492 38.9247 17.9155V26.4092C38.9259 28.2767 39.4908 29.2116 40.6712 29.2116Z" fill="white"/>
<path d="M50.0697 49.495C48.7394 49.495 47.499 50.2235 46.3312 51.6622V42.9045H42.7104V69.717H46.3312V67.778C47.5393 69.2755 48.7832 69.9914 50.0697 69.9914C51.5118 69.9914 52.4801 69.2328 52.9643 67.7469C53.2052 66.8996 53.3286 65.5693 53.3286 63.7214V55.7661C53.3286 53.8755 53.2052 52.5544 52.9643 51.751C52.479 50.2535 51.5118 49.495 50.0697 49.495ZM49.7089 64.005C49.7089 65.8091 49.1774 66.699 48.1342 66.699C47.5393 66.699 46.9353 66.4154 46.3301 65.8102V53.6323C46.9353 53.0363 47.5382 52.7527 48.1342 52.7527C49.1786 52.7527 49.7089 53.6772 49.7089 55.479V64.005Z" fill="white"/>
<path d="M61.5986 49.4941C59.7518 49.4941 58.3086 50.1754 57.2642 51.5438C56.4941 52.5525 56.1448 54.1133 56.1448 56.2471V63.2468C56.1448 65.3679 56.5391 66.946 57.308 67.9432C58.3535 69.3069 59.7945 69.9894 61.6897 69.9894C63.5802 69.9894 65.0638 69.2735 66.0668 67.8256C66.5048 67.1812 66.7907 66.4561 66.9118 65.6549C66.944 65.2918 66.989 64.4872 66.989 63.3229V62.7926H63.2943C63.2943 64.2451 63.2494 65.0486 63.2159 65.2457C63.0096 66.2129 62.4885 66.697 61.5986 66.697C60.3559 66.697 59.7518 65.7748 59.7518 63.9258V60.3844H66.9901V56.246C66.9901 54.111 66.627 52.5513 65.8696 51.5426C64.8563 50.1743 63.4154 49.4941 61.5986 49.4941V49.4941ZM63.3704 57.3722H59.7518V55.5243C59.7518 53.6776 60.3559 52.753 61.5663 52.753C62.7641 52.753 63.3704 53.6776 63.3704 55.5243V57.3722Z" fill="white"/>
<path d="M74.9306 0H8.06944C3.63125 0 0 3.63125 0 8.06944V74.9306C0 79.3688 3.63125 83 8.06944 83H74.9306C79.3688 83 83 79.3688 83 74.9306V8.06944C83 3.63125 79.3688 0 74.9306 0ZM49.0853 12.0696H52.7315V26.9312C52.7315 27.7912 52.7315 28.2373 52.7765 28.3549C52.8572 28.922 53.1431 29.2114 53.6341 29.2114C54.365 29.2114 55.1339 28.6442 55.9443 27.4984V12.0696H59.6032V32.2547H55.9443V30.0529C54.4883 31.7233 53.0992 32.5348 51.7655 32.5348C50.5873 32.5348 49.7746 32.0564 49.4092 31.0328C49.2075 30.423 49.0853 29.4558 49.0853 28.0309V12.0696ZM35.2669 18.6496C35.2669 16.4928 35.6347 14.9146 36.4128 13.8944C37.4249 12.5157 38.8498 11.8252 40.6712 11.8252C42.5041 11.8252 43.9266 12.5157 44.9399 13.8944C45.7053 14.9146 46.0754 16.4928 46.0754 18.6496V25.7219C46.0754 27.8661 45.7065 29.4569 44.9399 30.4702C43.9266 31.8455 42.5052 32.536 40.6712 32.536C38.8486 32.536 37.4238 31.8455 36.4128 30.4702C35.6347 29.4569 35.2669 27.8661 35.2669 25.7219V18.6496ZM25.4845 5.16675L28.3652 15.8034L31.1308 5.16675H35.2323L30.3538 21.2849V32.2547H26.296V21.2849C25.9294 19.339 25.1179 16.4916 23.8175 12.714C22.9622 10.2009 22.0711 7.67635 21.2169 5.16675H25.4845ZM70.4036 70.9166C69.6727 74.1017 67.0652 76.4511 63.9296 76.8004C56.5011 77.6304 48.9838 77.635 41.5 77.6304C34.015 77.635 26.4977 77.6304 19.0704 76.8004C15.9337 76.4499 13.3307 74.1006 12.5987 70.9166C11.5554 66.3792 11.5554 61.4269 11.5554 56.7582C11.5554 52.0848 11.567 47.1359 12.6114 42.5974C13.3423 39.4135 15.9464 37.0653 19.0831 36.7148C26.5104 35.8825 34.0277 35.8802 41.5127 35.8825C48.9965 35.8802 56.5138 35.8825 63.9423 36.7148C67.0767 37.0653 69.6831 39.4135 70.4151 42.5974C71.4584 47.1371 71.4526 52.0848 71.4526 56.7582C71.4538 61.4269 71.448 66.3792 70.4036 70.9166V70.9166Z" fill="white"/>
</svg>
